<svg width="366" height="374" viewBox="0 0 366 374" fill="none" xmlns="http://www.w3.org/2000/svg">
<circle cx="183" cy="183" r="183" fill="#F75814"/>
<path d="M57.98 275L84.5 124.07H35.75L41.08 93H171.6L166.4 124.07H117.26L90.74 275H57.98ZM208.595 278.12L182.595 176.72C182.162 174.813 181.728 172.733 181.295 170.48C180.862 168.227 180.472 165.757 180.125 163.07C179.952 164.543 179.648 166.753 179.215 169.7C178.868 172.56 178.522 174.9 178.175 176.72L161.015 275H128.385L160.365 93H193.385L216.915 191.8C217.868 195.527 218.562 198.603 218.995 201.03C219.428 203.37 219.775 205.58 220.035 207.66C220.988 205.58 221.985 203.5 223.025 201.42C224.152 199.34 225.495 197.087 227.055 194.66L290.365 93H322.995L291.015 275H258.255L275.415 176.59C275.848 174.77 276.368 172.343 276.975 169.31C277.668 166.277 278.145 164.11 278.405 162.81C277.105 165.497 275.848 167.967 274.635 170.22C273.422 172.473 272.208 174.553 270.995 176.46L208.595 278.12Z" fill="white"/>
</svg>
