<?xml version="1.0" standalone="no"?>
<!DOCTYPE svg PUBLIC "-//W3C//DTD SVG 20010904//EN"
 "http://www.w3.org/TR/2001/REC-SVG-20010904/DTD/svg10.dtd">
<svg version="1.0" xmlns="http://www.w3.org/2000/svg"
 width="748.000000pt" height="748.000000pt" viewBox="0 0 748.000000 748.000000"
 preserveAspectRatio="xMidYMid meet">
<metadata>
Created by potrace 1.14, written by Peter Selinger 2001-2017
</metadata>
<g transform="translate(0.000000,748.000000) scale(0.100000,-0.100000)"
fill="#000000" stroke="none">
<path d="M3490 7474 c-466 -42 -847 -138 -1240 -311 -754 -334 -1388 -934
-1767 -1673 -196 -382 -321 -794 -380 -1245 -25 -197 -25 -653 0 -850 58 -448
174 -833 368 -1220 182 -362 385 -641 684 -940 304 -304 589 -510 962 -694
388 -193 772 -305 1243 -363 162 -20 631 -17 805 5 712 92 1304 341 1874 788
136 108 442 414 550 550 446 568 696 1163 788 1874 25 197 25 653 0 850 -70
540 -232 1011 -503 1465 -250 418 -613 807 -1030 1106 -465 331 -1039 554
-1639 635 -144 19 -593 34 -715 23z m705 -2896 c137 -574 256 -1085 266 -1136
9 -51 18 -95 20 -97 2 -2 23 33 47 78 24 45 339 557 700 1137 l657 1055 328 3
327 2 -5 -22 c-3 -13 -93 -525 -200 -1138 -320 -1828 -425 -2423 -431 -2453
l-6 -27 -324 0 c-230 0 -324 3 -324 11 0 10 93 548 270 1562 39 218 81 449 95
513 14 64 25 121 25 127 0 7 -23 -31 -51 -83 -27 -52 -105 -184 -173 -295 -68
-110 -354 -576 -636 -1035 -281 -459 -516 -839 -520 -844 -11 -11 21 -131
-300 1124 -212 827 -270 1066 -270 1119 0 53 -12 6 -30 -116 -11 -71 -42 -257
-69 -413 -28 -157 -102 -584 -166 -950 -63 -366 -118 -677 -121 -693 l-6 -27
-324 0 c-178 0 -324 2 -324 4 0 3 92 528 205 1168 112 640 229 1307 260 1483
31 176 59 330 62 343 l5 22 -379 0 -379 0 -265 -1507 -264 -1508 -328 -3 -327
-2 5 22 c2 13 68 385 145 828 78 443 195 1110 261 1483 65 372 119 679 119
682 0 3 -218 5 -485 5 -381 0 -485 3 -485 13 0 6 23 142 50 300 28 159 50 293
50 298 0 5 612 9 1523 9 l1523 0 249 -1042z"/>
</g>
</svg>
